<svg version="1.0" xmlns="http://www.w3.org/2000/svg" width="426.667" height="426.667" viewBox="0 0 320 320"><path d="M.1 63.4v35.4l7.7 9.4c4.2 5.2 9.3 11.4 11.2 13.7 1.9 2.4 4 4.8 4.5 5.5.6.6 5.1 6 10 12.1 4.9 6 9.2 11.2 9.5 11.5.3.3 2.3 2.7 4.5 5.4 10.9 13.4 25 30.6 28.8 35 2.3 2.7 4.8 5.9 5.6 7 .8 1.2 1.7 2.3 2.1 2.6.5.5 17.6 21.1 21 25.4.8 1 3.2 3.9 5.4 6.5 2.1 2.5 4.5 5.5 5.5 6.6.9 1.1 5.4 6.7 10.1 12.4 4.7 5.8 9.2 11.2 10 12.1.8.9 3.1 3.6 5 6 15.7 19.6 18.1 22.1 19.4 20.7.9-1 14.5-17.1 23.7-28.2 3.4-4.1 10.2-12.1 12.3-14.5 1.2-1.4 5.5-6.6 9.7-11.5 4.1-5 8.4-10.1 9.6-11.5 1.1-1.4 4-4.8 6.3-7.5 2.3-2.8 5.9-7 8-9.5 2.1-2.5 8-9.5 13.1-15.5 13.2-15.8 17.3-20.6 18.4-21.9.6-.6 2.8-3.4 5-6.1 2.2-2.8 4.5-5.5 5.1-6 .6-.6 8.2-9.6 16.9-20 8.7-10.5 19.4-23.1 23.7-28.1l7.8-9.2-.1-36.6V28H.1v35.4z"/></svg>