<?xml version="1.0" standalone="no"?>
<!DOCTYPE svg PUBLIC "-//W3C//DTD SVG 20010904//EN" "http://www.w3.org/TR/2001/REC-SVG-20010904/DTD/svg10.dtd">
<svg version="1.0" xmlns="http://www.w3.org/2000/svg" width="320.000000pt" height="320.000000pt" viewBox="0 0 320.000000 320.000000" preserveAspectRatio="xMidYMid meet">
<metadata>Created by potrace 1.11, written by Peter Selinger 2001-2013</metadata>
<g transform="translate(0.000000,320.000000) scale(0.100000,-0.100000)"
fill="#000000" stroke="none">
<path d="M1 2566 l0 -354 77 -94 c42 -52 93 -114 112 -137 19 -24 40 -48 45
-55 6 -6 51 -60 100 -121 49 -60 92 -112 95 -115 3 -3 23 -27 45 -54 109 -134
250 -306 288 -350 23 -27 48 -59 56 -70 8 -12 17 -23 21 -26 5 -5 176 -211
210 -254 8 -10 32 -39 54 -65 21 -25 45 -55 55 -66 9 -11 54 -67 101 -124 47
-58 92 -112 100 -121 8 -9 31 -36 50 -60 157 -196 181 -221 194 -207 9 10 145
171 237 282 34 41 102 121 123 145 12 14 55 66 97 115 41 50 84 101 96 115 11
14 40 48 63 75 23 28 59 70 80 95 21 25 80 95 131 155 132 158 173 206 184
219 6 6 28 34 50 61 22 28 45 55 51 60 6 6 82 96 169 200 87 105 194 231 237
281 l78 92 -1 366 0 366 -1599 0 -1599 0 0 -354z"/>
</g>
</svg>
